<svg width="191" height="35" viewBox="0 0 191 35" fill="none" xmlns="http://www.w3.org/2000/svg">
<g clip-path="url(#clip0_9_2761)">
<path d="M0 5.34181V12.0948C0 14.1515 2.50611 15.2484 4.03763 13.8087L11.3471 7.05576C12.9483 5.58176 11.904 2.97656 9.71119 2.97656H2.40169C1.07902 2.97656 0 4.03921 0 5.34181Z" fill="white"/>
<path d="M34.5983 2.97656H27.2888C25.1308 2.97656 24.0517 5.58176 25.6529 7.05576L32.9624 13.8087C34.4939 15.2142 37 14.1515 37 12.0948V5.34181C37 4.03921 35.921 2.97656 34.5983 2.97656Z" fill="white"/>
<path d="M20.1533 19.4649L32.9624 31.3255C34.4939 32.7309 37 31.6682 37 29.6115V22.79C37 22.1387 36.7215 21.5217 36.2342 21.0761L20.1533 6.1647C19.2135 5.30773 17.7865 5.30773 16.8467 6.1647L0.765757 21.0761C0.278457 21.5217 0 22.1387 0 22.79V29.6115C0 31.6682 2.50611 32.7652 4.03763 31.3255L16.8467 19.4649C17.7865 18.608 19.2135 18.608 20.1533 19.4649Z" fill="white"/>
</g>
<path d="M51.7031 27.4766L47.5469 12.2038H51.8324L54.1989 22.4652H54.3381L56.804 12.2038H61.0099L63.5156 22.4055H63.6449L65.9716 12.2038H70.2472L66.1009 27.4766H61.6165L58.9915 17.8714H58.8026L56.1776 27.4766H51.7031ZM76.7425 18.647V27.4766H72.5067V7.11293H76.6232V14.8984H76.8022C77.1469 13.9969 77.7037 13.291 78.4727 12.7805C79.2416 12.2635 80.2061 12.005 81.3661 12.005C82.4267 12.005 83.3514 12.237 84.1403 12.701C84.9357 13.1584 85.5522 13.8179 85.9897 14.6797C86.4338 15.5348 86.6526 16.5589 86.646 17.7521V27.4766H82.4102V18.5078C82.4168 17.5665 82.1781 16.834 81.6942 16.3104C81.217 15.7867 80.5475 15.5249 79.6857 15.5249C79.109 15.5249 78.5986 15.6475 78.1545 15.8928C77.717 16.138 77.3723 16.496 77.1204 16.9666C76.8751 17.4306 76.7492 17.9908 76.7425 18.647ZM89.9794 27.4766V12.2038H94.2152V27.4766H89.9794ZM92.1072 10.2351C91.4775 10.2351 90.9373 10.0263 90.4865 9.60866C90.0424 9.18442 89.8203 8.67732 89.8203 8.08736C89.8203 7.50402 90.0424 7.00355 90.4865 6.58594C90.9373 6.16169 91.4775 5.94957 92.1072 5.94957C92.737 5.94957 93.2739 6.16169 93.718 6.58594C94.1688 7.00355 94.3942 7.50402 94.3942 8.08736C94.3942 8.67732 94.1688 9.18442 93.718 9.60866C93.2739 10.0263 92.737 10.2351 92.1072 10.2351ZM105.732 12.2038V15.3857H96.5344V12.2038H105.732ZM98.6225 8.54474H102.858V22.7834C102.858 23.1745 102.918 23.4794 103.037 23.6982C103.157 23.9103 103.322 24.0594 103.534 24.1456C103.753 24.2318 104.005 24.2749 104.29 24.2749C104.489 24.2749 104.688 24.2583 104.887 24.2251C105.086 24.1854 105.238 24.1555 105.344 24.1357L106.01 27.2876C105.798 27.3539 105.5 27.4302 105.115 27.5163C104.731 27.6091 104.264 27.6655 103.713 27.6854C102.693 27.7251 101.798 27.5893 101.029 27.2777C100.266 26.9661 99.6732 26.4822 99.2489 25.826C98.8247 25.1697 98.6159 24.3411 98.6225 23.3402V8.54474ZM115.287 27.7749C113.716 27.7749 112.364 27.4567 111.23 26.8203C110.104 26.1773 109.235 25.2692 108.625 24.0959C108.016 22.916 107.711 21.5206 107.711 19.9098C107.711 18.3388 108.016 16.96 108.625 15.7734C109.235 14.5869 110.094 13.6622 111.201 12.9993C112.314 12.3364 113.62 12.005 115.118 12.005C116.126 12.005 117.064 12.1674 117.932 12.4922C118.807 12.8104 119.569 13.291 120.219 13.9339C120.875 14.5769 121.386 15.3857 121.75 16.3601C122.115 17.3279 122.297 18.4614 122.297 19.7607V20.924H109.401V18.299H118.31C118.31 17.6892 118.177 17.1489 117.912 16.6783C117.647 16.2076 117.279 15.8397 116.809 15.5746C116.345 15.3028 115.804 15.1669 115.188 15.1669C114.545 15.1669 113.975 15.3161 113.478 15.6143C112.987 15.906 112.603 16.3004 112.324 16.7976C112.046 17.2881 111.903 17.835 111.897 18.4382V20.9339C111.897 21.6896 112.036 22.3426 112.314 22.8928C112.599 23.4429 113 23.8672 113.517 24.1655C114.034 24.4638 114.648 24.6129 115.357 24.6129C115.828 24.6129 116.258 24.5466 116.65 24.4141C117.041 24.2815 117.375 24.0826 117.654 23.8175C117.932 23.5523 118.144 23.2275 118.29 22.843L122.208 23.1016C122.009 24.0429 121.601 24.8648 120.985 25.5675C120.375 26.2635 119.586 26.8071 118.618 27.1982C117.657 27.5826 116.547 27.7749 115.287 27.7749ZM125.061 33.2038V12.2038H129.238V14.7692H129.426C129.612 14.3582 129.881 13.9406 130.232 13.5163C130.59 13.0855 131.054 12.7275 131.624 12.4425C132.201 12.1508 132.917 12.005 133.772 12.005C134.885 12.005 135.913 12.2966 136.854 12.88C137.795 13.4567 138.548 14.3284 139.111 15.495C139.675 16.6551 139.956 18.1101 139.956 19.8601C139.956 21.5637 139.681 23.0021 139.131 24.1754C138.587 25.3421 137.845 26.227 136.904 26.8303C135.969 27.4268 134.922 27.7251 133.762 27.7251C132.94 27.7251 132.24 27.5893 131.664 27.3175C131.094 27.0457 130.626 26.7043 130.262 26.2933C129.897 25.8757 129.619 25.4548 129.426 25.0305H129.297V33.2038H125.061ZM129.208 19.8402C129.208 20.7483 129.334 21.5405 129.586 22.2166C129.837 22.8928 130.202 23.4197 130.679 23.7976C131.157 24.1688 131.737 24.3544 132.419 24.3544C133.109 24.3544 133.692 24.1655 134.169 23.7876C134.647 23.4032 135.008 22.8729 135.253 22.1967C135.505 21.514 135.631 20.7285 135.631 19.8402C135.631 18.9586 135.508 18.183 135.263 17.5135C135.018 16.844 134.657 16.3203 134.179 15.9425C133.702 15.5646 133.115 15.3757 132.419 15.3757C131.73 15.3757 131.147 15.558 130.669 15.9226C130.199 16.2872 129.837 16.8042 129.586 17.4737C129.334 18.1432 129.208 18.9321 129.208 19.8402ZM147.135 27.7649C146.161 27.7649 145.292 27.5959 144.53 27.2578C143.768 26.9131 143.165 26.406 142.721 25.7365C142.283 25.0604 142.064 24.2185 142.064 23.2109C142.064 22.3625 142.22 21.6499 142.532 21.0732C142.843 20.4964 143.267 20.0324 143.804 19.6811C144.341 19.3298 144.951 19.0646 145.634 18.8857C146.323 18.7067 147.046 18.5807 147.801 18.5078C148.69 18.415 149.406 18.3288 149.949 18.2493C150.493 18.1631 150.887 18.0372 151.132 17.8714C151.378 17.7057 151.5 17.4605 151.5 17.1357V17.076C151.5 16.4463 151.301 15.959 150.904 15.6143C150.513 15.2696 149.956 15.0973 149.233 15.0973C148.471 15.0973 147.864 15.2663 147.414 15.6044C146.963 15.9358 146.665 16.3535 146.519 16.8572L142.601 16.5391C142.8 15.611 143.191 14.8089 143.775 14.1328C144.358 13.45 145.11 12.9264 146.032 12.5618C146.96 12.1906 148.033 12.005 149.253 12.005C150.102 12.005 150.914 12.1044 151.689 12.3033C152.471 12.5021 153.164 12.8104 153.767 13.228C154.377 13.6456 154.858 14.1825 155.209 14.8388C155.56 15.4884 155.736 16.2673 155.736 17.1754V27.4766H151.719V25.3587H151.6C151.355 25.8359 151.026 26.2569 150.615 26.6214C150.204 26.9794 149.711 27.2611 149.134 27.4666C148.557 27.6655 147.891 27.7649 147.135 27.7649ZM148.348 24.8416C148.971 24.8416 149.522 24.719 149.999 24.4737C150.476 24.2218 150.851 23.8838 151.123 23.4595C151.394 23.0353 151.53 22.5547 151.53 22.0178V20.397C151.398 20.4832 151.215 20.5627 150.983 20.6357C150.758 20.7019 150.503 20.7649 150.218 20.8246C149.933 20.8776 149.648 20.9273 149.363 20.9737C149.078 21.0135 148.819 21.05 148.587 21.0831C148.09 21.156 147.656 21.272 147.284 21.4311C146.913 21.5902 146.625 21.8056 146.419 22.0774C146.214 22.3426 146.111 22.674 146.111 23.0717C146.111 23.6484 146.32 24.0893 146.738 24.3942C147.162 24.6925 147.699 24.8416 148.348 24.8416ZM165.923 27.7749C164.359 27.7749 163.013 27.4434 161.886 26.7805C160.766 26.111 159.904 25.183 159.301 23.9964C158.704 22.8099 158.406 21.4444 158.406 19.8999C158.406 18.3355 158.708 16.9633 159.311 15.7834C159.921 14.5968 160.786 13.6721 161.906 13.0092C163.026 12.3397 164.359 12.005 165.903 12.005C167.235 12.005 168.402 12.2469 169.403 12.7308C170.404 13.2147 171.196 13.8942 171.779 14.7692C172.363 15.6442 172.684 16.6716 172.744 17.8516H168.747C168.634 17.0893 168.336 16.4761 167.852 16.0121C167.375 15.5414 166.748 15.3061 165.973 15.3061C165.316 15.3061 164.743 15.4851 164.252 15.843C163.769 16.1944 163.391 16.7081 163.119 17.3842C162.847 18.0604 162.711 18.879 162.711 19.8402C162.711 20.8146 162.844 21.6432 163.109 22.326C163.381 23.0088 163.762 23.5291 164.252 23.8871C164.743 24.245 165.316 24.424 165.973 24.424C166.457 24.424 166.891 24.3246 167.275 24.1257C167.666 23.9268 167.988 23.6385 168.24 23.2607C168.498 22.8762 168.667 22.4155 168.747 21.8786H172.744C172.678 23.0452 172.359 24.0727 171.789 24.9609C171.226 25.8426 170.447 26.532 169.453 27.0291C168.458 27.5263 167.282 27.7749 165.923 27.7749ZM182.416 27.7749C180.845 27.7749 179.493 27.4567 178.359 26.8203C177.232 26.1773 176.364 25.2692 175.754 24.0959C175.144 22.916 174.839 21.5206 174.839 19.9098C174.839 18.3388 175.144 16.96 175.754 15.7734C176.364 14.5869 177.223 13.6622 178.33 12.9993C179.443 12.3364 180.749 12.005 182.247 12.005C183.255 12.005 184.193 12.1674 185.061 12.4922C185.936 12.8104 186.698 13.291 187.348 13.9339C188.004 14.5769 188.515 15.3857 188.879 16.3601C189.244 17.3279 189.426 18.4614 189.426 19.7607V20.924H176.53V18.299H185.439C185.439 17.6892 185.306 17.1489 185.041 16.6783C184.776 16.2076 184.408 15.8397 183.938 15.5746C183.473 15.3028 182.933 15.1669 182.317 15.1669C181.674 15.1669 181.104 15.3161 180.607 15.6143C180.116 15.906 179.732 16.3004 179.453 16.7976C179.175 17.2881 179.032 17.835 179.026 18.4382V20.9339C179.026 21.6896 179.165 22.3426 179.443 22.8928C179.728 23.4429 180.129 23.8672 180.646 24.1655C181.163 24.4638 181.777 24.6129 182.486 24.6129C182.956 24.6129 183.387 24.5466 183.778 24.4141C184.17 24.2815 184.504 24.0826 184.783 23.8175C185.061 23.5523 185.273 23.2275 185.419 22.843L189.337 23.1016C189.138 24.0429 188.73 24.8648 188.114 25.5675C187.504 26.2635 186.715 26.8071 185.747 27.1982C184.786 27.5826 183.676 27.7749 182.416 27.7749Z" fill="white"/>
<defs>
<clipPath id="clip0_9_2761">
<rect width="37" height="29" fill="white" transform="translate(0 2.97656)"/>
</clipPath>
</defs>
</svg>
